<svg width="90" height="28" viewBox="0 0 90 28" fill="none" xmlns="http://www.w3.org/2000/svg">
<path fill-rule="evenodd" clip-rule="evenodd" d="M36.6853 22.5231C37.3089 22.5231 37.8256 22.3139 38.2358 21.8949C38.6455 21.4763 38.8506 20.9458 38.8506 20.3043C38.8506 19.6807 38.6455 19.1595 38.2358 18.7405C37.8256 18.3219 37.3089 18.1123 36.6853 18.1123H32.4348V22.5231H36.6853ZM36.1238 10.7075H32.4348V14.8243H36.1238C36.6941 14.8243 37.1705 14.6283 37.554 14.2362C37.9371 13.8443 38.1288 13.3541 38.1288 12.7659C38.1288 12.1778 37.9416 11.6878 37.5674 11.2957C37.1931 10.9038 36.7119 10.7075 36.1238 10.7075ZM40.0536 16.2675C41.6929 17.2123 42.5129 18.6377 42.5129 20.5446C42.5129 22.1309 41.9514 23.4315 40.8287 24.4475C39.706 25.4635 38.3246 25.9714 36.6852 25.9714H28.7456V7.25879H36.1238C37.7277 7.25879 39.0776 7.75332 40.1739 8.74238C41.2699 9.73144 41.8178 10.9925 41.8178 12.525C41.8178 14.0755 41.2296 15.323 40.0536 16.2675Z" fill="#233237"/>
<path fill-rule="evenodd" clip-rule="evenodd" d="M49.4101 19.1548H54.6768L51.9764 11.5093L49.4101 19.1548ZM57.0849 25.9714L55.8953 22.603H48.2084L47.0857 25.9714H43.1025L49.652 7.25879H54.2233L60.8249 25.9714H57.0849Z" fill="#233237"/>
<path fill-rule="evenodd" clip-rule="evenodd" d="M68.4965 26.3458C66.6427 26.3458 65.0834 25.9313 63.8182 25.1028C62.5526 24.2741 61.6617 23.1471 61.145 21.7209L64.2994 19.8767C65.03 21.7838 66.4648 22.7369 68.6035 22.7369C69.6368 22.7369 70.3943 22.5496 70.8755 22.1754C71.3567 21.8012 71.5973 21.3293 71.5973 20.7588C71.5973 20.0996 71.3034 19.587 70.7152 19.2216C70.1271 18.8566 69.0754 18.4598 67.5608 18.0319C66.723 17.7825 66.0146 17.5334 65.4357 17.2835C64.8564 17.0343 64.277 16.6998 63.6979 16.2811C63.1186 15.8625 62.6777 15.332 62.3747 14.6905C62.0714 14.0488 61.9204 13.3005 61.9204 12.4451C61.9204 10.7521 62.5217 9.4022 63.7249 8.39503C64.9278 7.38835 66.3755 6.88477 68.0687 6.88477C69.5832 6.88477 70.9158 7.25471 72.0652 7.99412C73.2148 8.73377 74.1102 9.76309 74.7517 11.0816L71.6509 12.8727C70.9025 11.2688 69.7081 10.4668 68.0687 10.4668C67.3023 10.4668 66.7009 10.6407 66.2642 10.988C65.8273 11.3358 65.6094 11.786 65.6094 12.3379C65.6094 12.9263 65.8542 13.4032 66.3445 13.7684C66.8345 14.1338 67.7747 14.53 69.1647 14.9578C69.735 15.1362 70.1673 15.2744 70.4613 15.3723C70.7552 15.4704 71.1564 15.6219 71.6643 15.8266C72.1721 16.0317 72.564 16.2234 72.8403 16.4014C73.1166 16.5798 73.4327 16.8204 73.7896 17.1231C74.1457 17.4264 74.4175 17.738 74.6048 18.0588C74.792 18.3795 74.9523 18.7673 75.0859 19.2216C75.2196 19.6761 75.2865 20.1706 75.2865 20.7052C75.2865 22.4341 74.6581 23.8062 73.4018 24.8222C72.1454 25.8377 70.5101 26.3458 68.4965 26.3458Z" fill="#233237"/>
<path fill-rule="evenodd" clip-rule="evenodd" d="M81.7129 22.4427H89.9998V25.9714H78.0239V7.25879H89.8662V10.7874H81.7129V14.7704H89.1978V18.2456H81.7129V22.4427Z" fill="#233237"/>
<path fill-rule="evenodd" clip-rule="evenodd" d="M12.4583 7.25293H11.4847L0 27.1449H23.943L12.4583 7.25293Z" fill="#FFDCB9"/>
<path fill-rule="evenodd" clip-rule="evenodd" d="M12.4584 7.25314L15.5123 1.96338L14.7821 1.54175L12.3931 5.67998V0.85498H11.5501V5.6795L9.16102 1.54175L8.43066 1.96338L11.4848 7.25314H12.4584Z" fill="#914137"/>
<path fill-rule="evenodd" clip-rule="evenodd" d="M18.6744 21.3926L16.0308 25.9713H21.3179L18.6744 21.3926Z" fill="#0FAFAA"/>
<path fill-rule="evenodd" clip-rule="evenodd" d="M5.26796 21.3926L2.62451 25.9713H7.91164L5.26796 21.3926Z" fill="#0FAFAA"/>
<path fill-rule="evenodd" clip-rule="evenodd" d="M11.9696 21.3926L9.32617 25.9713H14.6133L11.9696 21.3926Z" fill="#FA6482"/>
</svg>
